<svg xmlns="http://www.w3.org/2000/svg" viewBox="0 0 1757.1 225.9" style="enable-background:new 0 0 1757.1 225.9" xml:space="preserve"><path d="M22.8 170.9c-2.8 4.8-5.5 8-11.3 8S0 174.1 0 168.1c0-4.4 2.8-8.3 5.1-12l86-147.4C93.9 4.1 96.6 0 102.4 0c6 0 11.3 4.8 11.3 10.8 0 3.2-.9 6.3-2.5 9L22.8 170.9zm90.6 0c-2.8 4.8-5.5 8-11.3 8s-11.5-4.8-11.5-10.8c0-4.4 2.8-8.3 5.1-12l86-147.4C184.5 4.1 187.2 0 193 0c6 0 11.3 4.8 11.3 10.8 0 3.2-.9 6.3-2.5 9l-88.4 151.1z" style="fill:#cc7832"/><path d="m249.9 71.1 3.9-3.9c7.4-7.4 11.7-12.2 21.8-12.2H300c5.8 0 10.8 3.2 16.3 7.8l7.6 6.4c8.7 7.6 12 13.8 12 25.5v44.4c0 11.7-3.2 17.9-12 25.5l-7.6 6.4c-5.3 4.4-11.7 7.8-17.2 7.8h-22.8c-9 0-15.2-5.5-21.4-11.3l-5.1-4.8v1.4c0 7.1-2.3 14.7-11 14.7-9.4 0-11-7.8-11-15.4v-139c0-7.6 1.6-15.2 11-15.2s11 7.6 11 15.2l.1 46.7zm0 54.7c0 7.1.9 9.9 6.7 14.7l12.7 10.8c2.8 2.3 6.2 5.5 8.5 5.5h16.8c3.2 0 5.3-.7 6.9-2.1l9.7-8c2.5-2.1 2.8-7.4 2.8-11.7V95.8c0-4.4-1.2-7.8-3-9.2l-10.1-7.8c-1.5-1.3-3.4-1.9-5.3-1.8h-15.4c-3.4.2-6.7 1.6-9.2 3.9l-14.2 12.4c-3.7 3-6.7 6.4-6.7 13.1v19.4h-.2zm149.5-48.7c-6.4 0-15.2-1.4-15.2-11 0-9.4 7.8-11 15.2-11h30.4c11.5 0 19.8 1.1 28.5 9.9 8.5 8.5 9.7 15.2 9.9 26.2l2.3 75c.2 6.4-3 12.9-10.3 12.9-5.8 0-11.5-4.8-11.3-11l-15.2 7.8c-6.2 3.2-6.4 3.2-13.6 3.2h-21.2c-9.9 0-17-1.2-25.1-7.8-9.2-7.6-11.5-15.6-11.5-27.1v-9.7c0-10.6 2.5-17.2 10.8-24.6 7.6-6.7 16.1-8.3 25.8-8.3h47.4v-5.2c0-16.6-3.7-19.3-19.5-19.3h-27.4zm-.2 46.4c-6 0-14.7 1.6-14.7 9.7v14.7c0 7.4 9 9 14.3 9h24.4l24.4-12.7v-4.8c0-12.2-3.4-15.9-15.6-15.9h-32.8zm99.1-52.2c0-8 .9-16.3 11-16.3 8.7 0 11 7.4 11 14.7v9l17.3-14.3c6.2-5.1 12.7-9.4 19.6-9.4h17.7c8.1-.2 15.9 2.9 21.6 8.7 7.4 7.4 9.9 14.9 9.9 25.1 0 7.6-1.4 15.4-10.8 15.4-8.1 0-11.3-6.4-11.3-13.6 0-3.7 0-6.4-2.3-9.7-2.8-3.9-8-3.9-13.3-3.9h-6.4c-4.1 0-7.1 2.1-11 5.3l-30.8 25.5v55.9c0 7.6-1.6 15.2-11 15.2s-11-7.6-11-15.2l-.2-92.4zm177.3 66c0 12.4-.5 19.5 14.7 19.5h11.3c9 0 13.1-.7 15.4-9.7 1.4-5.3 5.5-9 11-9 6.1-.1 11.2 4.8 11.3 10.9v.1c0 6.2-3.9 14-7.6 18.4-8 9.7-18.6 11.3-30.4 11.3h-11.2c-11 0-20.7-2.5-28.5-11-8.5-9.4-8-18.9-8-30.8V77h-7.1c-6.4 0-15.2-1.4-15.2-11 0-9.4 7.8-11 15.2-11h7.1V32.4c0-7.6 1.6-15.2 11-15.2s11 7.6 11 15.2V55h37c7.4 0 15.2 1.6 15.2 11 0 9.7-8.7 11-15.2 11h-37v60.3zm151.8-60.2c-2.4 0-4.8.8-6.9 2.1l-32.7 20.5v64.2c0 7.6-1.6 15.2-11 15.2s-11-7.6-11-15.2V24.6c0-7.6 1.6-15.2 11-15.2s11 7.6 11 15.2V74l17.9-11.7c5.8-3.7 12.4-7.4 19.8-7.4h14.7c4.4 0 12.2 0 21.4 8 9.9 8.5 9.4 17.9 9.9 29.9l2.3 69.5c.2 7.8-.9 16.6-10.8 16.6-9 0-10.8-7.6-11-15l-2.3-68.1c-.5-10.6.2-18.9-12.2-18.9h-10.1v.2zm157.5 5.7V70.2c0-7.6 1.6-15.2 11-15.2s11 7.6 11 15.2v9c0 5.5-.5 9.2-2.8 14l-55.5 121.2c-4.8 10.4-7.4 11.5-17.5 11.5h-17c-6.4 0-15.2-1.4-15.2-11 0-9.4 7.8-11 15.2-11h15.2l16.3-33.9h-1.2c-9.2 0-9.7-4.1-13.1-11.7l-27.1-60c-3-6.7-5.3-11.7-5.3-18.2v-10c0-7.6 1.6-15.2 11-15.2s11 7.6 11 15.2v12.6l29.7 65.1h4.8l29.5-65z" style="fill:#9876aa"/><path d="M1054.4 149.5c-5.1 0-8.7 0-12-4.4-2.5-3.5-2.5-6-2.5-10.4v-12.9c0-4.4 0-6.9 2.5-10.4 3.2-4.4 6.9-4.4 12-4.4h16.6c5.1 0 8.8 0 12 4.4 2.5 3.5 2.5 6 2.5 10.4v12.9c0 4.4 0 6.9-2.5 10.4-3.2 4.4-6.9 4.4-12 4.4h-16.6zM1199.3 64c3.9-3.4 9.4-9 14.7-9 6.1 0 11.1 5.1 11 11.2v.1c0 5.3-3.4 7.8-7.4 11l-42.7 35.5 52 43.2c4.1 3.5 7.8 6 7.8 11.7.1 6.1-4.8 11.2-10.9 11.3h-.1c-4.4 0-7.1-2.8-10.3-5.3l-55.4-46.2-9.2 8.3v28.1c0 7.6-1.6 15.2-11 15.2s-11-7.6-11-15.2V24.6c0-7.6 1.6-15.2 11-15.2s11 7.6 11 15.2v81.9l50.5-42.5zm58.1 32.2c0-14.7 3-19.8 14-28.8 10.8-9 15.9-12.4 31.3-12.4h17.5c15.4 0 20.5 3.4 31.3 12.4 11 9 14 14 14 28.8v41.6c0 14.5-3.7 20-15.2 29.7s-16.1 11.5-30.1 11.5h-17.6c-14 0-18.6-1.8-30.1-11.5s-15.2-15.2-15.2-29.7l.1-41.6zm22 41.6c0 4.6 1.6 7.6 8 13.1 4.8 4.1 8.3 6 15.2 6h17.5c6.9 0 10.3-1.8 15.2-6 6.4-5.5 8-8.5 8-13.1V96.2c0-4.6-1.6-7.6-8-13.1-4.8-4.1-8.3-6-15.2-6h-17.5c-6.9 0-10.3 1.8-15.2 6-6.4 5.5-8 8.5-8 13.1v41.6zm153.1 41.2c-9.2 0-12.9 0-19.8-6l-9.4-8.3c-8.7-7.8-11.3-12.9-11.3-24.8V97.4c0-11.7 1.6-18.6 10.8-26.5l7.8-6.7c10.3-9 15.4-9.2 24.4-9.2h20.2c10.8 0 15.8 1.1 24.4 8l9 7.1c10.1 8 11.5 16.6 11.5 28.8v17.7c0 12.6-2.1 16.3-15.2 16.3H1414v7.4c0 2.1 1.6 4.8 3.2 6.4l5.5 6c3 3.2 7.4 4.1 14.7 4.1h47.4c7.4 0 15.2 1.6 15.2 11 0 9.7-8.7 11-15.2 11l-52.3.2zm-18.4-68.1h63.9V97.6c0-4.1.2-7.6-2.8-10.4l-8.5-7.4c-2.8-2.5-7.1-2.8-10.6-2.8h-18.6c-4.1 0-7.6 0-11.3 2.5l-7.6 5.5c-2.8 2.1-4.6 3.7-4.6 10.1l.1 15.8zm172 46h16.6c7.4 0 15.2 1.6 15.2 11 0 9.7-8.7 11-15.2 11h-56.1c-6.4 0-15.2-1.4-15.2-11 0-9.4 7.8-11 15.2-11h17.5V31.5h-17.5c-6.4 0-15.2-1.4-15.2-11 0-9.4 7.8-11 15.2-11h23.2c12.7 0 16.3 2.3 16.3 15.4v132zm85-57.3v64.2c0 7.6-1.6 15.2-11 15.2s-11-7.6-11-15.2V71.3c0-8 .9-16.3 11-16.3 9.9 0 11 8.3 11 16.1v3l17.9-11.7c5.8-3.7 12-7.4 19.1-7.4h16.3c8.5 0 13.8 2.3 20.5 8 9.9 8.5 9.4 17.9 9.9 29.9l2.3 69.5c.2 7.8-.9 16.6-10.8 16.6-9 0-10.8-7.6-11-15l-2.3-68.1c-.5-13.6-1.6-18.9-15-18.9h-7.4c-2.4 0-4.8.8-6.9 2.1l-32.6 20.5z" style="fill:#eab868"/></svg>