<svg xmlns="http://www.w3.org/2000/svg" width="2451.476" height="240.222" viewBox="0 0 2451.476 240.222"><path d="M0 0c-2.1-3.85-4.55-6.3-9.1-6.3s-9.099 3.85-9.099 8.75c0 3.499 2.099 6.65 4.2 9.449l68.597 117.596c2.099 3.5 4.549 6.999 9.099 6.999 4.9 0 9.1-3.849 9.1-8.749 0-2.45-.7-4.9-2.1-7z" style="fill:#cc7832;fill-opacity:1;fill-rule:nonzero;stroke:none" transform="matrix(1.33333 0 0 -1.33333 24.957 182.574)"/><path d="M0 0c-2.1-3.85-4.55-6.3-9.1-6.3s-9.099 3.85-9.099 8.75c0 3.499 2.1 6.65 4.2 9.449l68.597 117.596c2.1 3.5 4.549 6.999 9.099 6.999 4.901 0 9.1-3.849 9.1-8.749 0-2.45-.699-4.9-2.1-7z" style="fill:#cc7832;fill-opacity:1;fill-rule:nonzero;stroke:none;stroke-width:.99975;stroke-dasharray:none" transform="matrix(1.33333 0 0 -1.33333 121.086 182.574)"/><path d="M1018.68 243.545h4.329q3.82-.085 4.583.085 3.31.425 5.857 2.292l.425.424q.34.255.679.595l.849.679 1.612 1.358v-1.019q.085-1.188.34-1.952.085-.255.34-.68.339-.424.679-.763.34-.34.679-.51.34-.17.764-.254.424-.17.764-.255 1.358-.17 2.546.51.34.17.764.679.51.509.679.848.17.255.34.595.17.594.17 2.97.084 2.292.084 20.712l-.085 23.343q-.254 1.953-1.103 3.65-.849 1.783-2.122 3.14-.34.34-1.783 1.529-1.358 1.273-2.292 2.037-2.8 2.292-6.536 2.716h-18.844l-.34-.085q-1.357-.424-2.206-1.528-.764-1.103-.764-2.461t.764-2.462q.849-1.018 2.207-1.443l.34-.085 9.252-.085h9.252l.34-.085q.594-.17 1.018-.509.51-.34 1.867-1.528.85-.679 1.274-1.103.424-.34.679-.764.34-.34.424-.594.17-.17.34-.595l.17-.509v-11.884q0-.254-.086-.17l-1.527 1.274q-1.528 1.273-1.868 1.528-.255.255-.764.594-2.377 1.528-5.347 1.952-.68.085-4.33.085t-4.329-.085q-1.103-.17-2.207-.509-1.103-.34-2.122-.764-.933-.51-1.782-1.188-2.801-2.207-4.244-3.735l-1.02-1.189-.848-1.358-.679-1.358q-.255-.764-.424-1.528-.255-1.018-.34-1.952v-15.194q.255-2.037 1.019-3.905.849-1.867 2.292-3.31 1.443-1.528 4.244-3.735 2.631-2.037 6.026-2.462m8.148 8.15q-.254-.086-2.037-.086t-3.565.085h-1.952q-.68.17-1.189.51-.509.254-2.037 1.612-1.443 1.189-1.867 1.613-.34.424-.595.934-.254.594-.339 1.443v8.318q0 6.027.255 6.621.085.085.085.17.254.594.594 1.019.424.34 1.867 1.527 2.122 1.783 2.971 2.038l.425.17h7.3q.509-.085 1.188-.425.424-.255 3.14-2.546t3.735-3.226q1.613-1.358 2.038-2.462l.17-.509v-7.724l-.17-.34q-.085-.424-.34-.764-.17-.424-.424-.764-.17-.17-2.037-1.697-1.783-1.613-3.65-3.226-1.868-1.613-2.123-1.698-.679-.509-1.443-.594m41.225-8.15h6.367q4.668-.085 5.687 0 1.018 0 2.037.255 2.801.594 5.008 2.377 3.056 2.546 3.99 3.565 1.273 1.273 2.037 2.8.764 1.444 1.103 3.142.255 1.273.255 7.47 0 4.753-.085 5.432 0 .594-.34 1.273-.424.849-1.103 1.358-.594.51-1.528.764-.255.085-2.377.17h-26.568l.085 1.613q0 1.867.34 2.546.254.595.593 1.019.425.34 1.868 1.528 2.037 1.782 2.886 2.122l.424.085h11.205q9.252 0 10.356.085 1.103 0 1.698.254 1.103.425 1.782 1.528.68 1.019.68 2.207 0 1.443-.935 2.632-.933 1.103-2.376 1.358-.425.085-11.375.085t-11.629-.085q-1.103-.085-2.207-.425t-2.122-.848q-.934-.51-1.782-1.189-2.802-2.207-4.245-3.735-2.8-2.886-3.225-7.045-.085-.594-.085-9.507 0-8.998.085-9.762.255-2.037 1.019-3.735.848-1.697 2.207-3.14 1.018-1.019 4.074-3.565 2.631-2.207 6.196-2.632m12.563 8.234-.34-.085-5.602-.085q-4.414 0-5.263.085-.848 0-1.358.17-.424.17-.849.51l-1.697 1.357q-.764.594-1.358 1.189-.51.509-.68.594-.17.254-.339.424-.085.17-.17.425-.085.17-.17.509l-.17.424v3.396l-.084 3.31h23.852v-3.31q0-2.801-.085-3.226 0-.51-.34-1.188-.084-.085-.17-.255-.084-.17-.169-.255-.085-.17-.17-.254-.254-.34-1.952-1.783-1.358-1.103-1.867-1.443-.425-.34-1.02-.51zm26.54-8.234h.934q.255 0 .51.085.254 0 .424.085.254 0 .424.17l.51.17q1.188.764 1.697 1.952.17.594.17.934.085.34.085 1.697l.085 1.698 3.99-2.547q4.074-2.63 4.838-3.055.594-.255 1.273-.51.68-.254 1.358-.424.68-.17 1.443-.255h2.207q1.698-.085 3.396 0 1.697 0 2.037.085 4.074.68 6.875 3.565.68.68 1.274 1.528.594.85 1.018 1.783.425.849.68 1.867.254.934.424 1.953 0 .424.509 15.109.51 14.6.51 15.534 0 .763-.086 1.188-.34 1.443-1.528 2.292t-2.631.764q-2.462-.17-3.48-2.377 0-.085-.085-.17-.255-.51-.68-13.072-.084-2.037-.084-3.14-.51-15.195-.595-15.62-.085-.339-.254-.678-.085-.34-.255-.594-.17-.34-.424-.595-.255-.254-.51-.424-.254-.255-.594-.424-.254-.17-.594-.255l-.51-.17h-2.97q-3.31 0-4.075.34-.34.17-6.45 4.074l-6.028 3.905-.085 12.902q0 10.95-.085 12.138 0 1.189-.34 1.868-.593 1.273-1.782 1.867-1.612.764-3.225.17l-.51-.17-.509-.34-.424-.424q-.934-.933-1.189-2.207v-38.961q.17-.68.425-1.104.254-.509.764-1.018.933-.934 2.122-1.189zm59.645 0h6.366q4.669-.085 5.687 0 1.02 0 2.038.255 2.8.594 5.008 2.377 3.056 2.546 3.99 3.565 1.273 1.273 2.037 2.8.763 1.444 1.103 3.142.255 1.273.255 7.47 0 4.753-.085 5.432 0 .594-.34 1.273-.424.849-1.103 1.358-.595.51-1.528.764-.255.085-2.377.17h-26.569l.085 1.613q0 1.867.34 2.546.255.595.594 1.019.425.34 1.868 1.528 2.037 1.782 2.886 2.122l.424.085h11.205q9.252 0 10.355.085 1.104 0 1.698.254 1.104.425 1.783 1.528.679 1.019.679 2.207 0 1.443-.934 2.632-.934 1.103-2.377 1.358-.424.085-11.374.085t-11.63-.085q-1.103-.085-2.206-.425-1.104-.34-2.122-.848-.934-.51-1.783-1.189-2.8-2.207-4.244-3.735-2.801-2.886-3.226-7.045-.085-.594-.085-9.507 0-8.998.085-9.762.255-2.037 1.02-3.735.848-1.697 2.206-3.14 1.019-1.019 4.074-3.565 2.632-2.207 6.197-2.632m12.563 8.234-.34-.085-5.602-.085q-4.414 0-5.263.085-.849 0-1.358.17-.424.17-.849.51l-1.698 1.357q-.763.594-1.358 1.189-.509.509-.679.594-.17.254-.34.424-.084.17-.169.425-.085.17-.17.509l-.17.424v3.396l-.084 3.31h23.852v-3.31q0-2.801-.085-3.226 0-.51-.34-1.188-.085-.085-.17-.255-.084-.17-.17-.255-.084-.17-.169-.254-.255-.34-1.952-1.783-1.358-1.103-1.868-1.443-.424-.34-1.018-.51zm26.54-8.234q1.443-.254 2.801.51.255.17.764.679.51.509.68.848.169.255.254.595.085.17.085.34.085.169.085.424.085.17.085.594v4.499l.085.34 1.358-1.19q1.358-1.188 3.225-2.8 1.953-1.613 3.396-2.886 1.528-1.274 1.697-1.359.51-.34 1.274-.509.17-.085 1.018-.085h4.075q5.263 0 6.62.255 3.65.934 6.112 3.735 2.547 2.8 3.056 6.536v1.018q.085.68.085 1.359v1.273q0 .594-.085.849-.255 1.443-1.358 2.376-1.103.934-2.631.934-.51 0-1.104-.085-.51-.17-.934-.424l-.848-.68q-.34-.339-.595-.763-.254-.51-.424-1.019-.085-.254-.17-.594v-3.48l-.17-.51q-.17-.424-.34-.679-.084-.254-.339-.594-.509-.594-1.358-1.018-1.613-.34-4.668-.34h-3.565l-6.706 5.687-6.706 5.687v11.375q0 9.677-.085 10.78 0 1.019-.34 1.698-.594 1.273-1.782 1.867-1.613.764-3.226.17l-.509-.17-.51-.34-.424-.424q-.933-.933-1.188-2.207v-38.961q.17-.68.424-1.104.255-.51.764-1.018.51-.51.934-.764.51-.255 1.188-.425zm57.523 0h8.488q8.573 0 9.677.255l.17.085q2.461.594 4.413 2.122 2.038 1.443 3.226 3.65t1.528 4.668q0 .51.424 10.866.085 2.8.17 5.857.085 2.97.17 5.517t.17 3.82q.17 4.923.085 5.263-.17 1.443-1.274 2.461-1.697 1.613-3.904.934-2.207-.68-2.802-2.971-.085-.34-.085-.51v-.254q-.085 0-2.97 1.698-3.396 1.952-3.99 2.122l-7.215.085h-6.621q-.934-.085-2.037-.34-3.31-.849-5.687-3.31-2.802-2.886-3.31-6.96-.086-.765-.086-3.736t.085-3.735q.51-3.99 3.31-6.875 1.359-1.443 3.056-2.292 1.698-.934 3.735-1.273l.68-.085h17.825l.679.085q.68.17 1.103.34l.51.084q.085-.085-.085-2.97-.085-2.887-.085-3.311-.255-1.104-.934-1.868t-1.698-1.103l-.509-.17-8.234-.085h-7.724q-.849-.085-1.528-.424-1.528-.764-2.122-2.547 0-.17-.085-.254v-.85q0-.678.085-1.103.255-.764.764-1.443 1.019-1.188 2.631-1.443zm17.316 25.38-.51-.17h-8.318q-8.319 0-8.573.086-.255 0-.68.084-1.867.68-2.461 2.632l-.085.424v5.857l.085.34q.68 2.122 2.716 2.801.34.085 6.112.085h5.857l4.329-2.462 4.329-2.546-.085-.594v-1.443q-.085-2.038-.17-2.462-.34-1.188-1.273-1.952-.255-.17-.424-.255-.17-.17-.425-.255-.17-.085-.424-.17zm31.803-39.046q.933-.17 1.867.085l.764.34q1.188.594 1.783 1.782.34.68.34 1.358.084.594.084 4.923v5.093l8.319.085h8.318l.34.085q1.782.594 2.546 2.122.255.51.34.85t.085.933q0 1.018-.425 1.867-.763 1.528-2.546 2.122l-.34.085h-16.637l.085 13.157v13.157l.17.425q.34 1.188 1.188 1.867.595.424 1.274.68l.509.169h9.252q.594-.085 1.274-.425 1.612-.848 2.122-2.716.085-.34.085-.594l.17-.51q.17-.254.254-.424.085-.254.17-.424l.34-.34q1.358-1.612 3.48-1.358 1.697.255 2.716 1.613 1.103 1.358.849 2.97-.68 4.67-4.414 7.64-1.104.934-2.547 1.613-1.358.594-2.716.849-.934.17-1.867.255h-9.762l-.68-.17q-1.951-.34-3.65-1.188-1.612-.934-2.97-2.292-1.358-1.443-2.207-3.141-.849-1.783-1.103-3.82-.085-.51-.085-2.376v-24.617h-2.377q-2.292 0-2.632-.085-.933-.34-1.612-.848-.68-.595-1.019-1.359-.34-.848-.34-1.782 0-1.358.764-2.377.85-1.103 2.207-1.528.34-.085 2.632-.085l2.377-.085v-10.016q.085-.679.424-1.358.849-1.783 2.801-2.207zm45.554 13.666h8.233q5.348 0 5.942.34.17 0 .255.085.764.34 1.358 1.018.51.68.764 1.528.085.255.085 2.801v31.747h4.33l4.328.085.34.085q.849.254 1.528.848.679.51 1.018 1.274.425.764.425 1.782t-.425 1.783q-.764 1.613-2.546 2.122l-.425.17h-25.21l-.425-.17q-1.358-.34-2.207-1.443-.763-1.104-.763-2.462t.763-2.376q.85-1.104 2.207-1.528l.34-.085 4.33-.085h4.328v-29.455h-8.658l-.34-.17q-1.612-.424-2.461-1.782-.849-1.443-.425-3.056.255-1.188 1.189-1.952.933-.85 2.122-1.104m7.215-20.287.679-.17q.34-.085 2.886-.085 1.613 0 2.037.085.51 0 .764.085.34 0 .849.255.594.34 1.019.764.509.424.764 1.103.424.85.424 3.48v2.038q0 .424-.085.764-.085.254-.34.679-.594 1.273-1.782 1.867h-.085q-.764.425-3.31.425h-.17q-2.886 0-3.65-.255-.425-.17-.764-.34-.255-.254-.68-.594-.424-.424-.594-.679-.17-.34-.339-.764-.085-.254-.17-.424-.085-.255-.085-.594v-4.245q.085-.509.255-1.018.254-.764.934-1.443l.424-.425q.255-.17.51-.254.254-.17.509-.255zm38.084 20.287q1.443-.254 2.801.51.255.17.764.679.51.509.68.848.17.255.254.595.255.509.255 1.103v6.282l5.942 13.58 5.941 13.582q.085 0 6.027-13.581l5.942-13.581v-6.281q.085-.595.255-1.104.254-.764.933-1.443.764-.68 1.528-1.019 1.358-.424 2.717 0 .763.34 1.443 1.019.424.424.594.764.254.254.424.679.255.679.255 4.838 0 4.16-.34 5.008-.509 1.189-7.13 16.213-6.536 14.94-6.62 15.11-.256.339-.68.763-.424.34-.679.51-.594.339-1.358.509-.424.085-3.226.085-2.8 0-3.225-.085-.255 0-.51-.085l-.509-.17q-.17-.085-.34-.255-.848-.424-1.358-1.273l-13.75-31.322q-.34-.849-.34-5.008 0-4.16.254-4.838.255-.764.934-1.443.51-.51.934-.764.51-.255 1.188-.425m59.645 0h6.366q4.669-.085 5.687 0 1.019 0 2.038.255 2.8.594 5.008 2.377 3.056 2.546 3.99 3.565 1.272 1.273 2.036 2.8.764 1.444 1.104 3.142.255 1.273.255 7.47 0 4.753-.085 5.432 0 .594-.34 1.273-.424.849-1.104 1.358-.594.51-1.527.764-.255.085-2.377.17h-26.569l.085 1.613q0 1.867.34 2.546.254.595.594 1.019.424.34 1.867 1.528 2.038 1.782 2.886 2.122l.425.085h11.205q9.252 0 10.355.085 1.104 0 1.698.254 1.103.425 1.783 1.528.679 1.019.679 2.207 0 1.443-.934 2.632-.934 1.103-2.377 1.358-.424.085-11.374.085t-11.63-.085q-1.103-.085-2.206-.425-1.104-.34-2.122-.848-.934-.51-1.783-1.189-2.801-2.207-4.244-3.735-2.801-2.886-3.226-7.045-.085-.594-.085-9.507 0-8.998.085-9.762.255-2.037 1.019-3.735.849-1.697 2.207-3.14 1.018-1.019 4.074-3.565 2.632-2.207 6.197-2.632m12.563 8.234-.34-.085-5.602-.085q-4.414 0-5.263.085-.849 0-1.358.17-.425.17-.849.51l-1.698 1.357q-.764.594-1.358 1.189-.509.509-.679.594-.17.254-.34.424-.084.17-.17.425-.084.17-.169.509l-.17.424v3.396l-.085 3.31h23.853v-3.31q0-2.801-.085-3.226 0-.51-.34-1.188-.085-.085-.17-.255t-.17-.255q-.084-.17-.17-.254-.254-.34-1.951-1.783-1.359-1.103-1.868-1.443-.424-.34-1.018-.51z" aria-label="generative" style="font-size:84.8836px;font-family:OCRA;-inkscape-font-specification:OCRA;letter-spacing:-11.3178px;word-spacing:0;white-space:pre;fill:#9876aa;stroke-width:1.333" transform="translate(-2599.985 -628.689)scale(2.8274)"/><path d="M1502.147 253.816q.34-.085 16.892-.085 11.799 0 14.175.085 2.377 0 2.632.085.254 0 .509.17.34.085.594.255.255.17.425.339.679.51 1.103 1.358.425.849.425 3.48v.085q0 2.547-.425 3.396-.424.848-1.103 1.358-.595.51-1.528.849-.255 0-2.632.085h-29.964q-.848 0-.933-.085-.85-.085-1.528-.51-.255-.17-.764-.594-.51-.51-.68-.849l-.084-.085q-.085-.17-.17-.254v-.255q-.17-.51-.255-1.019v-2.122q0-2.376.255-3.055.255-.764.934-1.528.933-.85 2.122-1.104m53.448-27.332q.255-.085 6.79-.085.51 0 1.444.085 5.348 0 5.942.254.17.085.254.085 1.613.849 2.122 2.632.085.34.085 25.974v25.635h4.33l4.329.085.34.085q.848.254 1.527.848.679.51 1.019 1.274.424.764.424 1.782t-.424 1.783q-.34.764-1.019 1.358-.68.51-1.528.764l-.424.17h-25.211l-.424-.17q-1.358-.34-2.207-1.443-.764-1.104-.764-2.462 0-.679.17-1.273.254-.679.594-1.188.424-.51.934-.85.594-.424 1.273-.593l.34-.085 4.328-.085h4.33v-46.516h-8.659l-.34-.17q-1.103-.255-1.867-1.019-.679-.764-1.018-1.782-.255-1.019 0-2.038.254-1.188 1.188-2.037t2.122-1.018m49.374 17.061h8.234q5.347 0 5.942.34.17 0 .254.085.764.34 1.358 1.018.51.68.764 1.528.085.255.085 2.801v31.747h4.33l4.328.085.34.085q.849.254 1.528.848.679.51 1.018 1.274.425.764.425 1.782t-.425 1.783q-.764 1.613-2.546 2.122l-.424.17h-25.211l-.424-.17q-1.358-.34-2.207-1.443-.764-1.104-.764-2.462t.764-2.376q.849-1.104 2.207-1.528l.34-.085 4.328-.085h4.33v-29.455h-8.659l-.34-.17q-1.612-.424-2.461-1.782-.849-1.443-.424-3.056.254-1.188 1.188-1.952.934-.85 2.122-1.104m7.215-20.287.68-.17q.339-.085 2.885-.085 1.613 0 2.037.085.51 0 .764.085.34 0 .85.255.593.34 1.018.764.51.424.764 1.103.424.85.424 3.48v2.038q0 .424-.085.764-.085.254-.34.679-.594 1.273-1.782 1.867h-.085q-.764.425-3.31.425h-.17q-2.886 0-3.65-.255-.425-.17-.764-.34-.255-.254-.68-.594-.424-.424-.593-.679-.17-.34-.34-.764-.085-.254-.17-.424-.085-.255-.085-.594v-4.245q.085-.509.255-1.018.255-.764.934-1.443l.424-.425q.255-.17.51-.254.254-.17.509-.255zm38.084 20.287h.935q.254 0 .508.085.255 0 .425.085.255 0 .424.17l.51.17q1.188.764 1.697 1.952.17.594.17.934.085.34.085 1.697l.085 1.698 3.99-2.547q4.074-2.63 4.838-3.055.594-.255 1.273-.51.68-.254 1.358-.424.68-.17 1.443-.255h2.207q1.698-.085 3.396 0 1.697 0 2.037.085 4.074.68 6.875 3.565.68.68 1.274 1.528.594.85 1.018 1.783.425.849.68 1.867.254.934.424 1.953 0 .424.51 15.109.508 14.6.508 15.534 0 .763-.085 1.188-.34 1.443-1.527 2.292-1.189.849-2.632.764-2.461-.17-3.48-2.377 0-.085-.085-.17-.255-.51-.68-13.072-.084-2.037-.084-3.14-.51-15.195-.594-15.62-.085-.339-.255-.678-.085-.34-.255-.594-.17-.34-.424-.595-.255-.254-.51-.424-.254-.255-.593-.424-.255-.17-.595-.255l-.509-.17h-2.971q-3.31 0-4.074.34-.34.17-6.451 4.074l-6.027 3.905-.085 12.902q0 10.95-.085 12.138 0 1.189-.34 1.868-.594 1.273-1.782 1.867-1.613.764-3.226.17l-.51-.17-.509-.34-.424-.424q-.934-.933-1.188-2.207v-38.961q.17-.68.424-1.104.255-.509.764-1.018.934-.934 2.122-1.189zm59.645 0h6.366q4.669-.085 5.688 0 1.018 0 2.037.255 2.8.594 5.008 2.377 3.056 2.546 3.99 3.565 1.273 1.273 2.037 2.8.764 1.444 1.103 3.142.255 1.273.255 7.47 0 4.753-.085 5.432 0 .594-.34 1.273-.424.849-1.103 1.358-.594.51-1.528.764-.255.085-2.377.17h-26.569l.085 1.613q0 1.867.34 2.546.255.595.594 1.019.425.34 1.868 1.528 2.037 1.782 2.886 2.122l.424.085h11.205q9.252 0 10.356.085 1.103 0 1.697.254 1.104.425 1.783 1.528.679 1.019.679 2.207 0 1.443-.934 2.632-.934 1.103-2.377 1.358-.424.085-11.374.085t-11.63-.085q-1.103-.085-2.206-.425-1.104-.34-2.122-.848-.934-.51-1.783-1.189-2.8-2.207-4.244-3.735-2.801-2.886-3.225-7.045-.085-.594-.085-9.507 0-8.998.085-9.762.254-2.037 1.018-3.735.849-1.697 2.207-3.14 1.019-1.019 4.075-3.565 2.63-2.207 6.196-2.632m12.563 8.234-.34-.085-5.602-.085q-4.414 0-5.263.085-.849 0-1.358.17-.424.17-.849.51l-1.697 1.357q-.764.594-1.359 1.189-.509.509-.679.594-.17.254-.34.424-.084.17-.169.425-.085.17-.17.509l-.17.424v3.396l-.084 3.31h23.852v-3.31q0-2.801-.085-3.226 0-.51-.34-1.188-.085-.085-.17-.255-.084-.17-.17-.255-.084-.17-.169-.254-.255-.34-1.952-1.783-1.358-1.103-1.868-1.443-.424-.34-1.018-.51zm33.246-8.234q.594-.085 9.761-.085 9.253 0 9.932.085 4.499.51 7.554 3.735 1.528 1.528 1.783 2.801.255 1.019 0 1.953-.085.17-.17.424l-.17.34q-.509 1.103-1.697 1.782-1.189.594-2.377.425-.934-.085-1.613-.51-.594-.424-1.273-1.188-.849-1.104-2.207-1.528l-.424-.085-8.998-.085q-9.083 0-9.337.085-.51.085-1.019.51-.424.339-.679.763-.085.255-.17.34v.849q.085.17.17.254.255.764.849 1.104.255.17 7.64 3.48 15.958 6.96 16.806 7.555 1.019.679 1.868 1.528.934.848 1.613 1.867.679.934 1.103 1.952 1.698 3.905.68 7.81-1.444 5.772-6.791 8.318-1.274.594-2.632.934-1.273.255-10.61.255-8.658 0-9.338-.17-1.697-.255-3.734-1.104-2.377-.933-4.33-2.461-1.442-1.189-1.867-2.037-.849-1.783.085-3.48.51-1.19 1.613-1.783 1.188-.68 2.462-.51 1.188.17 2.461 1.274 1.273 1.018 2.632 1.528 1.188.424 2.037.594h16.722l.424-.085q.85-.34 1.528-.849.764-.594 1.104-1.443.679-1.358.34-2.801-.34-1.443-1.529-2.377l-.34-.17q-.169-.17-.254-.17-.34-.17-16.467-7.214-6.282-2.802-6.706-3.056-1.443-.68-2.716-2.038-2.462-2.461-2.886-5.941-.255-2.038.34-3.99.593-1.952 1.951-3.565 2.717-3.226 6.876-3.82z" aria-label="-lines" style="font-size:84.8836px;font-family:OCRA;-inkscape-font-specification:OCRA;letter-spacing:-11.3178px;word-spacing:0;white-space:pre;fill:#eab868;stroke-width:1.333" transform="translate(-2599.985 -628.689)scale(2.8274)"/></svg>